<?xml version="1.0" standalone="no"?>
<!DOCTYPE svg PUBLIC "-//W3C//DTD SVG 20010904//EN"
 "http://www.w3.org/TR/2001/REC-SVG-20010904/DTD/svg10.dtd">
<svg version="1.0" xmlns="http://www.w3.org/2000/svg"
 width="448.688907pt" height="61.817303pt" viewBox="0 0 448.688907 61.817303"
 preserveAspectRatio="xMidYMid meet">
<metadata>
Created by potrace 1.12, written by Peter Selinger 2001-2015
</metadata>
<g transform="translate(-23.105178,89.000000) scale(0.100000,-0.100000)"
fill="#000000" stroke="none">
<path d="M1934 875 c-11 -28 4 -45 41 -45 l35 0 0 -240 0 -240 -22 0 c-34 0
-50 -15 -46 -41 3 -22 7 -24 63 -24 l60 0 3 32 3 33 22 -21 c98 -95 244 -68
310 56 17 31 22 57 22 116 -1 67 -4 82 -31 125 -59 96 -173 124 -267 64 l-46
-29 -3 112 -3 112 -68 3 c-53 2 -68 0 -73 -13z m360 -246 c39 -30 56 -71 56
-131 0 -67 -25 -117 -71 -141 -39 -21 -96 -18 -135 8 -88 57 -85 221 4 270 41
22 114 19 146 -6z"/>
<path d="M2512 863 c2 -23 8 -29 36 -31 l32 -3 0 -240 0 -239 -25 0 c-29 0
-47 -28 -34 -53 7 -12 23 -17 57 -17 51 0 72 12 72 42 0 15 7 12 46 -15 38
-27 55 -32 102 -32 127 0 208 95 200 233 -7 123 -72 202 -172 210 -71 6 -98
-2 -141 -39 l-35 -31 0 121 0 121 -71 0 -70 0 3 -27z m367 -243 c52 -52 63
-127 31 -197 -26 -57 -71 -85 -129 -80 -82 9 -125 63 -125 157 -1 97 49 149
141 150 44 0 56 -4 82 -30z"/>
<path d="M3164 875 c-14 -36 3 -45 81 -45 l75 0 0 -240 0 -240 -74 0 c-90 0
-106 -5 -106 -36 0 -33 16 -35 230 -32 l185 3 3 24 c5 33 -12 41 -95 41 l-73
0 -2 268 -3 267 -108 3 c-89 2 -108 0 -113 -13z"/>
<path d="M242 832 c-8 -5 -12 -20 -10 -33 2 -20 10 -25 41 -27 l37 -3 0 -210
0 -209 -27 0 c-39 0 -55 -13 -51 -41 3 -24 4 -24 137 -27 166 -3 224 11 279
67 55 57 75 123 70 229 -5 95 -24 146 -75 194 -52 50 -96 61 -248 65 -77 2
-146 0 -153 -5z m295 -73 c75 -28 120 -122 110 -228 -7 -76 -31 -123 -80 -155
-35 -22 -52 -26 -114 -26 l-73 0 0 210 0 210 64 0 c36 0 77 -5 93 -11z"/>
<path d="M1098 691 c-25 -16 -58 -47 -72 -68 l-26 -38 0 63 0 62 -76 0 -75 0
3 -27 c3 -25 7 -28 46 -31 l42 -3 0 -149 0 -149 -47 -3 c-46 -3 -48 -4 -48
-33 l0 -30 167 -3 c157 -2 168 -1 178 17 19 36 -11 51 -101 51 l-79 0 0 67 c0
143 108 253 216 220 29 -9 37 -8 45 4 46 73 -80 109 -173 50z"/>
<path d="M1499 693 c-56 -29 -70 -56 -38 -76 12 -7 29 -4 64 13 67 33 160 33
187 1 11 -14 18 -39 18 -63 0 -34 -3 -39 -17 -33 -10 4 -53 10 -96 13 -137 8
-211 -40 -211 -139 0 -59 23 -95 77 -120 69 -31 156 -19 227 31 l28 20 16 -25
c27 -41 126 -46 126 -6 0 23 -20 41 -46 41 -31 0 -34 15 -34 153 0 136 -7 159
-59 194 -28 19 -47 23 -111 23 -64 0 -86 -5 -131 -27z m184 -218 c47 -6 48 -7
45 -38 -5 -47 -70 -89 -147 -95 -50 -4 -62 -1 -80 17 -24 24 -27 68 -8 95 14
20 75 35 117 30 14 -2 47 -6 73 -9z"/>
<path d="M3825 703 c-82 -43 -124 -114 -125 -209 0 -85 36 -155 98 -192 42
-24 56 -27 132 -26 137 2 228 47 186 93 -17 19 -18 19 -64 -2 -35 -16 -67 -21
-124 -22 -68 0 -79 3 -103 25 -31 28 -40 44 -49 83 l-6 27 180 0 c206 0 201
-2 181 83 -24 104 -95 157 -211 156 -40 0 -77 -6 -95 -16z m167 -59 c21 -6 68
-61 68 -80 0 -11 -26 -14 -140 -14 -88 0 -140 4 -140 10 0 6 15 26 33 46 44
48 100 60 179 38z"/>
<path d="M4538 691 c-25 -16 -58 -47 -72 -68 l-26 -38 0 63 0 62 -76 0 -75 0
3 -27 c3 -25 7 -28 46 -31 l42 -3 0 -149 0 -149 -47 -3 c-46 -3 -48 -4 -48
-33 l0 -30 167 -3 c157 -2 168 -1 178 17 19 36 -11 51 -101 51 l-79 0 0 67 c0
47 6 79 21 109 38 80 128 135 186 113 39 -15 52 -11 59 18 17 65 -95 87 -178
34z"/>
</g>
</svg>
